HIERARCHY
ROOT root
{
	OFFSET 0.000000 0.000000 0.000000
	CHANNELS 6 Xposition Yposition Zposition Zrotation Yrotation Xrotation
	JOINT lhip
	{
		OFFSET 0.058581 -0.082280 -0.017664
		CHANNELS 3 Zrotation Yrotation Xrotation
		JOINT lknee
		{
			OFFSET 0.043451 -0.386469 0.008037
			CHANNELS 3 Zrotation Yrotation Xrotation
			JOINT lankle
			{
				OFFSET -0.014790 -0.426874 -0.037428
				CHANNELS 3 Zrotation Yrotation Xrotation
				JOINT ltoe
				{
					OFFSET 0.041054 -0.060286 0.122042
					CHANNELS 3 Zrotation Yrotation Xrotation
					End Site
					{
						OFFSET 0.000000 0.000000 0.000000
					}
				}
			}
		}
	}
	JOINT rhip
	{
		OFFSET -0.060310 -0.090513 -0.013543
		CHANNELS 3 Zrotation Yrotation Xrotation
		JOINT rknee
		{
			OFFSET -0.043257 -0.383688 -0.004843
			CHANNELS 3 Zrotation Yrotation Xrotation
			JOINT rankle
			{
				OFFSET 0.019056 -0.420046 -0.034562
				CHANNELS 3 Zrotation Yrotation Xrotation
				JOINT rtoe
				{
					OFFSET -0.034840 -0.062106 0.130323
					CHANNELS 3 Zrotation Yrotation Xrotation
					End Site
					{
						OFFSET 0.000000 0.000000 0.000000
					}
				}
			}
		}
	}
	JOINT lowerback
	{
		OFFSET 0.004439 0.124404 -0.038385
		CHANNELS 3 Zrotation Yrotation Xrotation
		JOINT upperback
		{
			OFFSET 0.004488 0.137956 0.026820
			CHANNELS 3 Zrotation Yrotation Xrotation
			JOINT chest
			{
				OFFSET -0.002265 0.056032 0.002855
				CHANNELS 3 Zrotation Yrotation Xrotation
				JOINT lowerneck
				{
					OFFSET -0.013390 0.211636 -0.033468
					CHANNELS 3 Zrotation Yrotation Xrotation
					JOINT upperneck
					{
						OFFSET 0.010113 0.088937 0.050410
						CHANNELS 3 Zrotation Yrotation Xrotation
						End Site
						{
							OFFSET 0.000000 0.000000 0.000000
						}
					}
				}
				JOINT lclavicle
				{
					OFFSET 0.071702 0.114000 -0.018898
					CHANNELS 3 Zrotation Yrotation Xrotation
					JOINT lshoulder
					{
						OFFSET 0.122921 0.045205 -0.019046
						CHANNELS 3 Zrotation Yrotation Xrotation
						JOINT lelbow
						{
							OFFSET 0.255332 -0.015649 -0.022946
							CHANNELS 3 Zrotation Yrotation Xrotation
							JOINT lwrist
							{
								OFFSET 0.265709 0.012698 -0.007375
								CHANNELS 3 Zrotation Yrotation Xrotation
								End Site
								{
									OFFSET 0.000000 0.000000 0.000000
								}
							}
						}
					}
				}
				JOINT rclavicle
				{
					OFFSET -0.082954 0.112472 -0.023707
					CHANNELS 3 Zrotation Yrotation Xrotation
					JOINT rshoulder
					{
						OFFSET -0.113228 0.046853 -0.008472
						CHANNELS 3 Zrotation Yrotation Xrotation
						JOINT relbow
						{
							OFFSET -0.260127 -0.014369 -0.031269
							CHANNELS 3 Zrotation Yrotation Xrotation
							JOINT rwrist
							{
								OFFSET -0.269108 0.006794 -0.006027
								CHANNELS 3 Zrotation Yrotation Xrotation
								End Site
								{
									OFFSET 0.000000 0.000000 0.000000
								}
							}
						}
					}
				}
			}
		}
	}
}
MOTION
Frames: 11
Frame Time: 0.033333
-0.412968 0.193014 0.911922 -65.082001 -0.582116 79.869279 -4.464989 -5.544252 -13.239246 -15.945593 -7.308636 51.362941 9.045206 8.568014 -29.665448 0.000000 -0.000000 0.000000 -2.956851 4.438936 -22.472687 3.947188 7.485491 56.925505 5.090323 -6.290681 -18.709825 0.000000 -0.000000 0.000000 1.330079 -0.364877 17.710156 5.605802 -7.270219 -5.269472 1.056649 -0.925751 -0.229667 -3.596999 -0.668127 -12.183747 -1.120297 -6.443058 6.294983 10.021538 -41.345565 -25.556442 -5.020489 -55.279056 -14.692595 48.493911 -37.784963 -55.697306 11.137129 -5.667031 -31.484153 0.233428 31.913450 -18.720871 2.366467 38.441510 -10.321400 -91.783594 55.042891 -61.508859 14.907783 -0.330086 19.245459 
-0.433070 0.194265 0.902784 -64.193053 -0.618219 79.597596 -4.036344 -4.908946 -12.971551 -16.852462 -7.400683 54.143075 8.738930 8.361091 -31.811637 0.000000 -0.000000 0.000000 -2.087092 3.649090 -22.316344 3.647366 6.748024 59.875329 4.624847 -7.182820 -20.699401 0.000000 -0.000000 0.000000 0.812182 -0.438192 17.772879 5.254359 -7.206326 -6.709236 0.753956 -0.789375 0.100738 -2.941781 0.035820 -13.511213 -1.462577 -8.473917 7.369438 11.041544 -41.387262 -26.648346 -4.088309 -55.342333 -14.916834 49.691355 -38.123331 -55.968414 9.809853 -6.595784 -32.237401 0.175586 31.434847 -20.896342 2.069892 38.614879 -10.062217 -90.761766 56.329483 -60.086070 18.187161 -3.898389 14.311301 
-0.452678 0.196970 0.897787 -63.388777 -0.342698 79.348530 -3.211395 -4.091610 -11.946930 -17.694425 -8.318705 55.610035 8.044748 7.825566 -33.507949 0.000000 -0.000000 0.000000 -0.859768 2.737979 -21.898325 3.482187 5.381968 61.525536 3.625725 -9.149824 -22.663170 0.000000 -0.000000 0.000000 0.084236 -0.080359 16.938470 5.096149 -7.121096 -6.300685 0.720871 -0.851531 0.013564 -1.991445 0.693934 -14.082855 -1.318737 -9.980359 7.489818 12.285118 -41.497967 -28.146285 -3.936092 -55.423552 -14.317004 50.834893 -38.537200 -56.075182 9.398023 -7.400790 -31.996443 0.513400 31.327545 -22.800813 1.372012 37.953243 -10.048982 -89.422013 57.612541 -58.574689 21.354727 -6.446874 10.567195 
-0.471410 0.199737 0.900794 -61.865773 -0.108727 79.166265 -2.526959 -3.881950 -10.087984 -18.197441 -9.953008 55.008359 7.432408 7.425046 -33.468278 0.000000 -0.000000 0.000000 -0.122648 1.105322 -19.872790 3.354874 4.672079 60.361189 2.677132 -9.977619 -23.733744 0.000000 -0.000000 0.000000 -0.641029 0.269695 15.833751 4.989372 -7.740409 -5.247323 0.912645 -1.135842 0.176790 -1.992402 0.828295 -15.944466 -0.736529 -11.645877 7.713457 13.691928 -40.907350 -29.914217 -4.354313 -55.563033 -13.596609 51.649908 -39.047109 -55.872314 9.164451 -7.564391 -31.627245 -0.438561 31.006572 -24.319459 1.633428 37.182967 -10.053675 -88.371759 58.098864 -56.991225 23.954234 -8.562326 7.303945 
-0.485898 0.202644 0.914161 -59.594923 0.033775 80.039577 -2.027056 -4.887788 -8.585156 -18.186250 -12.307412 52.008224 6.281283 6.833167 -31.850976 0.000000 -0.000000 0.000000 -0.373296 -0.100264 -17.639290 3.509533 3.469947 56.201953 2.504067 -9.960474 -23.723838 0.000000 -0.000000 0.000000 -1.244859 0.590521 14.422157 4.884006 -8.239240 -5.031050 0.859192 -1.439235 -0.610938 -1.078945 0.413831 -15.583303 -0.841002 -13.091588 7.987996 13.664587 -41.612337 -29.379684 -4.222578 -56.172418 -13.280170 51.281103 -38.728755 -55.601177 7.957504 -8.417193 -30.422799 -0.142725 30.398259 -24.222869 2.004887 35.707163 -9.175072 -85.717455 58.017628 -54.578938 24.803929 -9.293946 5.739211 
-0.497966 0.204829 0.939225 -56.972077 0.489172 80.763396 -1.454579 -5.059277 -6.375689 -17.145553 -16.064151 47.341238 4.206443 5.739000 -27.596322 0.000000 -0.000000 0.000000 -0.108300 -2.240105 -13.888529 3.070504 2.666752 48.919799 2.571261 -9.646254 -20.540256 0.000000 -0.000000 0.000000 -1.300843 0.541062 13.253708 4.668652 -8.973773 -4.566419 1.384030 -1.505317 -1.674286 -2.509080 -2.619551 -14.962096 0.643279 -13.776824 6.910096 13.174122 -42.555340 -28.585380 -5.353052 -56.346205 -12.763172 50.814864 -38.976528 -54.707660 8.106124 -7.991851 -29.138355 -0.876924 31.244424 -22.837142 1.255981 32.238560 -10.369961 -81.304637 58.234997 -51.085894 26.068303 -9.489296 4.883650 
-0.508193 0.207876 0.973199 -54.798954 1.133810 81.810333 -0.471414 -4.805012 -4.464876 -15.179938 -19.963307 41.388751 1.060159 3.754497 -20.094738 0.000000 -0.000000 0.000000 0.834592 -3.735058 -10.084570 2.010545 2.238615 40.058150 3.658436 -8.865192 -13.833682 0.000000 -0.000000 0.000000 -0.674333 1.169727 12.455920 4.183998 -9.142029 -4.755729 1.787490 -1.857797 -2.721483 -3.176179 -6.023640 -14.592223 1.063480 -13.371213 7.402867 13.252600 -42.967517 -28.129242 -8.264600 -57.406121 -11.110131 49.863472 -39.227067 -53.097436 11.811269 -6.086913 -26.577878 -2.449494 31.556592 -21.887108 1.589559 29.086056 -10.759245 -71.338483 56.502783 -43.398773 24.793745 -7.909706 7.388989 
-0.508354 0.211137 1.008753 -53.380168 0.837758 84.855578 -0.468522 -7.792256 -5.665880 -12.131820 -19.532811 34.602695 -2.490657 3.040624 -10.224228 0.000000 -0.000000 0.000000 0.376224 -2.603661 -10.073383 1.226405 0.388532 32.769250 6.440800 -8.056515 -4.971396 0.000000 -0.000000 0.000000 -0.602429 0.852308 9.908557 3.541901 -8.707968 -4.605414 1.931875 -1.334088 -4.032448 -4.072159 -9.781658 -12.113514 2.311263 -12.487875 4.382157 12.273939 -43.418754 -26.348599 -8.967046 -59.243245 -9.704991 49.879456 -37.397757 -54.289648 14.537043 -5.227923 -22.758869 -3.456619 33.000071 -19.205939 -1.022455 27.758129 -11.800139 -52.711242 48.715898 -27.936627 17.054695 -3.009174 18.201218 
-0.509933 0.213922 1.041695 -53.088624 0.478158 86.369716 -0.484509 -9.318370 -5.032766 -9.211762 -18.553238 27.397596 -5.732138 3.388951 0.040363 0.000000 -0.000000 0.000000 0.005450 -2.026694 -9.240744 0.267174 -1.368421 26.833276 9.317696 -7.400767 3.853419 0.000000 -0.000000 0.000000 0.245959 0.940306 9.670731 1.962838 -7.248874 -5.009709 1.570957 -0.947039 -5.276881 -3.978847 -11.810603 -10.162447 3.643543 -12.405202 2.244460 13.448960 -43.605689 -25.824969 -9.354560 -61.091044 -8.551590 48.873706 -34.357094 -54.068347 17.104076 -5.212193 -23.545470 -7.764080 34.287692 -19.926779 -0.779558 27.316905 -9.965598 -36.027039 33.610415 -13.660342 5.376830 5.011836 22.560357 
-0.511418 0.217123 1.065479 -52.982935 0.282510 87.196400 -0.373548 -7.363943 -4.528488 -7.156882 -18.824715 21.922115 -8.713114 4.430629 8.604827 0.000000 -0.000000 0.000000 -0.069322 -2.891777 -8.443360 0.137064 -1.318227 21.692730 10.784517 -7.702435 12.535536 0.000000 -0.000000 0.000000 0.506188 0.631775 9.404803 0.876832 -6.216207 -5.065328 2.320983 -0.776128 -5.587155 -4.865889 -15.113443 -10.024345 4.647764 -10.462625 0.698857 15.135046 -43.788467 -27.297840 -9.690213 -61.194792 -8.340181 48.994914 -31.847411 -53.713578 14.404978 -4.732536 -24.064198 -12.718161 36.296600 -22.056767 -5.020687 29.827878 -14.563591 -18.629644 16.609322 -12.557835 13.626132 0.552998 4.789756 
-0.511866 0.219324 1.080984 -52.057563 -0.001445 88.403886 -0.162704 -5.781387 -4.967168 -5.552452 -17.826661 17.281116 -10.311448 4.387360 16.110790 0.000000 -0.000000 0.000000 -0.307986 -4.249880 -8.372352 -0.049212 -2.620202 17.390179 11.490903 -7.997352 20.844527 0.000000 -0.000000 0.000000 0.504925 0.668543 8.798996 0.330103 -5.853034 -4.930284 2.536680 -0.475516 -6.657802 -5.243382 -18.101931 -9.221370 6.062529 -9.956077 -0.514926 17.607219 -43.985830 -28.048289 -9.254162 -61.169498 -9.649678 50.550600 -29.624845 -52.915266 7.086609 -5.866550 -23.282046 -16.533600 36.577080 -23.536831 -3.981116 29.544881 -16.961228 -12.107019 6.698971 -13.593037 36.236602 0.028296 -9.333267 
